#!OML:ASF F:\VICON\USERDATA\INSTALL\Justin_Nancy\Justin_Nancy.ASF
:FULLY-SPECIFIED
:DEGREES
130
root -8.64867 17.3374 -15.9652 0.722541 -2.38342 5.90742
lowerback 6.38506 -1.03708 -6.57664
upperback 0.410814 -1.81329 1.26737
thorax -2.91299 -0.811836 5.1763
lowerneck -17.3086 -3.13736 -8.99683
upperneck 20.7995 -3.24031 5.69747
head 9.69156 -1.58057 3.05268
rclavicle 2.41523e-014 -6.36111e-015
rhumerus -35.5387 -20.6759 -73.8925
rradius 25.2194
rwrist 13.7288
rhand -13.1707 16.8976
rfingers 7.12502
rthumb 12.9287 -12.6819
lclavicle 2.41523e-014 -6.36111e-015
lhumerus -22.5031 3.38235 84.0474
lradius 31.5166
lwrist -7.10749
lhand -16.9423 25.7227
lfingers 7.12502
lthumb 9.29105 55.498
rfemur -28.7109 -0.692457 15.8198
rtibia 18.3166
rfoot -5.03013 -9.87529
rtoes -3.29135
lfemur 2.92542 1.12709 -30.757
ltibia 19.1658
lfoot -16.7091 -4.35858
ltoes 1.08745
131
root -8.65863 17.3202 -15.8188 0.7224 -2.6348 5.91395
lowerback 6.4106 -0.911092 -6.62245
upperback 0.365264 -1.65041 1.31248
thorax -2.99463 -0.725482 5.23842
lowerneck -17.3058 -3.21278 -8.9805
upperneck 20.8662 -3.31794 5.55377
head 9.71886 -1.63226 2.98923
rclavicle -1.03368e-014 3.26007e-014
rhumerus -35.7619 -20.8518 -73.5888
rradius 25.0998
rwrist 14.1038
rhand -13.1742 17.0961
rfingers 7.12502
rthumb 12.9252 -12.4836
lclavicle -1.03368e-014 3.26007e-014
lhumerus -22.5545 3.05938 84.1605
lradius 31.8315
lwrist -7.12094
lhand -17.328 25.5775
lfingers 7.12502
lthumb 8.91888 55.369
rfemur -28.4148 -0.191937 15.777
rtibia 17.0868
rfoot -5.73764 -9.67473
rtoes -3.20808
lfemur 3.5753 0.945226 -30.8647
ltibia 18.8688
lfoot -16.469 -3.88106
ltoes 0.331093
132
root -8.67154 17.3109 -15.6677 0.734113 -2.71254 6.14289
lowerback 6.38684 -0.862586 -6.92188
upperback 0.39639 -1.60452 1.32388
thorax -2.94696 -0.701335 5.41544
lowerneck -17.742 -3.26228 -8.94038
upperneck 21.0819 -3.32633 5.40102
head 9.87425 -1.64654 2.92816
rclavicle -3.67752e-015 0
rhumerus -35.6593 -20.8819 -73.4726
rradius 24.9239
rwrist 14.0748
rhand -13.3926 17.2626
rfingers 7.12502
rthumb 12.7147 -12.3303
lclavicle -3.67752e-015 0
lhumerus -22.5772 2.88617 84.3115
lradius 32.1929
lwrist -6.73404
lhand -17.3226 25.5387
lfingers 7.12502
lthumb 8.92404 55.33
rfemur -28.1753 -0.0598749 15.622
rtibia 16.3422
rfoot -6.05189 -9.31068
rtoes -5.17962
lfemur 4.23183 1.02741 -31.0946
ltibia 18.6534
lfoot -16.5383 -3.96683
ltoes -1.32347
133
root -8.68399 17.3037 -15.5257 0.796639 -2.69191 5.96009
lowerback 6.27674 -0.895643 -6.76471
upperback 0.424671 -1.62506 1.43966
thorax -2.85352 -0.717521 5.44586
lowerneck -17.7737 -3.19526 -9.01453
upperneck 21.1454 -3.19749 5.35082
head 9.89306 -1.59907 2.94151
rclavicle -3.18055e-014 -1.19271e-014
rhumerus -35.594 -20.5406 -73.5729
rradius 24.9627
rwrist 13.9064
rhand -13.7174 16.843
rfingers 7.12502
rthumb 12.4016 -12.7691
lclavicle -3.18055e-014 -1.19271e-014
lhumerus -22.5712 2.88801 84.4412
lradius 32.3879
lwrist -6.35253
lhand -16.752 26.3494
lfingers 7.12502
lthumb 9.47462 56.1164
rfemur -28.1293 -0.120813 16.021
rtibia 16.1306
rfoot -6.12021 -8.85869
rtoes -6.59397
lfemur 4.80056 0.917676 -30.8572
ltibia 18.4908
lfoot -16.531 -4.17285
ltoes -2.12932
134
root -8.69635 17.2919 -15.3856 0.859406 -2.68936 5.86092
lowerback 6.25428 -0.916244 -6.692
upperback 0.316948 -1.64646 1.51224
thorax -2.95007 -0.721923 5.48402
lowerneck -17.4934 -3.11592 -9.17809
upperneck 21.228 -3.0926 5.44383
head 9.86602 -1.55823 3.01903
rclavicle 1.2921e-015 1.03368e-014
rhumerus -35.8202 -20.4168 -73.4765
rradius 25.0592
rwrist 14.0082
rhand -13.6079 16.3212
rfingers 7.12502
rthumb 12.5071 -13.2845
lclavicle 1.2921e-015 1.03368e-014
lhumerus -22.6481 3.05577 84.4603
lradius 32.4293
lwrist -6.45166
lhand -16.6028 26.97
lfingers 7.12502
lthumb 9.61856 56.7304
rfemur -28.213 -0.299485 16.382
rtibia 16.3718
rfoot -6.07317 -8.25597
rtoes -7.81846
lfemur 5.30117 0.49692 -30.7645
ltibia 18.4208
lfoot -16.3388 -4.07891
ltoes -2.77192
135
root -8.70754 17.2854 -15.2406 0.786795 -2.54782 5.97804
lowerback 6.46168 -0.995846 -6.80758
upperback 0.19316 -1.77834 1.5237
thorax -3.17318 -0.773526 5.58143
lowerneck -17.1355 -3.10729 -9.26103
upperneck 21.1664 -3.0742 5.37514
head 9.77681 -1.56853 3.0113
rclavicle 7.35503e-015 7.95139e-015
rhumerus -36.1202 -20.1785 -73.3735
rradius 25.1135
rwrist 13.9685
rhand -12.9863 14.7511
rfingers 7.12502
rthumb 13.1064 -14.817
lclavicle 7.35503e-015 7.95139e-015
lhumerus -22.7207 3.26332 84.4237
lradius 32.3535
lwrist -6.53703
lhand -16.9717 26.5356
lfingers 7.12502
lthumb 9.26263 56.3121
rfemur -28.0519 -0.867237 16.5976
rtibia 16.8189
rfoot -5.6115 -7.46216
rtoes -9.27765
lfemur 5.82432 0.15124 -30.86
ltibia 18.6281
lfoot -16.3105 -4.14345
ltoes -2.14583
136
root -8.72352 17.2843 -15.0954 0.595908 -2.60325 5.91924
lowerback 6.6563 -0.907391 -6.71874
upperback 0.284364 -1.66597 1.49177
thorax -3.20694 -0.720293 5.49227
lowerneck -17.167 -3.19751 -9.04611
upperneck 21.1091 -3.22395 5.24498
head 9.76862 -1.63395 2.90761
rclavicle 2.21645e-014 8.74653e-015
rhumerus -36.1714 -20.3868 -73.3489
rradius 25.0365
rwrist 13.8918
rhand -12.3477 11.9092
rfingers 7.12502
rthumb 13.7219 -17.6183
lclavicle 2.21645e-014 8.74653e-015
lhumerus -22.4444 3.19551 84.4457
lradius 32.1467
lwrist -6.33761
lhand -16.9132 26.1929
lfingers 7.12502
lthumb 9.31908 55.9669
rfemur -27.7937 -1.34507 17.0687
rtibia 17.5703
rfoot -5.01589 -6.54669
rtoes -9.25372
lfemur 6.33788 -0.0279853 -30.7488
ltibia 19.0271
lfoot -16.3196 -4.3505
ltoes -1.56502
137
root -8.74562 17.2799 -14.9561 0.664352 -2.88585 5.86092
lowerback 6.57002 -0.759142 -6.74371
upperback 0.370136 -1.46126 1.51478
thorax -3.09714 -0.624612 5.50935
lowerneck -17.5064 -3.22761 -9.02145
upperneck 21.2972 -3.24045 5.22552
head 9.89927 -1.63945 2.89537
rclavicle -1.48095e-014 -7.95139e-016
rhumerus -36.0284 -20.6267 -73.3383
rradius 25.0109
rwrist 13.9948
rhand -12.3001 12.2902
rfingers 7.12502
rthumb 13.7678 -17.2343
lclavicle -1.48095e-014 -7.95139e-016
lhumerus -22.1523 3.16863 84.5447
lradius 32.0462
lwrist -6.32648
lhand -16.7044 26.0677
lfingers 7.12502
lthumb 9.52052 55.8326
rfemur -27.9404 -1.33275 17.4799
rtibia 18.576
rfoot -4.519 -5.86575
rtoes -8.29675
lfemur 6.45544 -0.228317 -30.6762
ltibia 19.5339
lfoot -16.1432 -4.54768
ltoes -1.53509
138
root -8.76114 17.2636 -14.8132 0.801257 -2.88986 5.9431
lowerback 6.42469 -0.747299 -6.85369
upperback 0.335594 -1.44352 1.5391
thorax -3.05098 -0.614955 5.59268
lowerneck -17.4892 -3.1883 -9.10417
upperneck 21.3038 -3.17683 5.27941
head 9.89566 -1.61089 2.93747
rclavicle -1.65985e-014 -7.15625e-015
rhumerus -35.9416 -20.7045 -73.2391
rradius 24.8731
rwrist 14.1326
rhand -12.8687 13.83
rfingers 7.12502
rthumb 13.2198 -15.7308
lclavicle -1.65985e-014 -7.15625e-015
lhumerus -22.2266 3.46087 84.6126
lradius 32.1286
lwrist -6.87971
lhand -17.1655 25.8527
lfingers 7.12502
lthumb 9.07564 55.6375
rfemur -28.1578 -1.65745 17.7394
rtibia 19.6642
rfoot -4.09558 -5.18394
rtoes -8.95306
lfemur 6.48434 -0.497672 -30.7444
ltibia 20.1016
lfoot -15.9659 -4.82807
ltoes -2.27554
139
root -8.77788 17.2489 -14.6612 0.807931 -2.7091 5.99448
lowerback 6.3008 -0.823594 -6.92243
upperback 0.341433 -1.54053 1.55975
thorax -2.95876 -0.66614 5.65776
lowerneck -17.5845 -3.16326 -8.97519
upperneck 21.4123 -3.12326 5.08081
head 9.94254 -1.59859 2.85378
rclavicle -1.5207e-014 8.74653e-015
rhumerus -35.865 -20.8577 -73.1602
rradius 24.6713
rwrist 14.3458
rhand -12.7885 11.6892
rfingers 7.12502
rthumb 13.2971 -17.8666
lclavicle -1.5207e-014 8.74653e-015
lhumerus -22.3873 3.85444 84.5775
lradius 32.2472
lwrist -7.50158
lhand -17.7456 25.5146
lfingers 7.12502
lthumb 8.5158 55.3229
rfemur -28.1112 -1.90205 17.9365
rtibia 20.7539
rfoot -3.92276 -4.81835
rtoes -9.01211
lfemur 6.73913 -0.715301 -30.7273
ltibia 20.5668
lfoot -15.683 -5.21097
ltoes -3.30694
140
root -8.80168 17.2501 -14.5024 0.668356 -2.46258 6.00527
lowerback 6.34426 -0.898283 -7.00957
upperback 0.327099 -1.64855 1.60048
thorax -2.97855 -0.717366 5.76048
lowerneck -17.5446 -3.14994 -9.05799
upperneck 21.6172 -3.08099 5.0422
head 10.0062 -1.59376 2.86285
rclavicle -1.03368e-014 -7.15625e-015
rhumerus -36.0928 -20.8982 -72.998
rradius 24.7086
rwrist 14.3838
rhand -12.2357 9.7789
rfingers 7.12502
rthumb 13.8298 -19.7413
lclavicle -1.03368e-014 -7.15625e-015
lhumerus -22.6734 4.13023 84.5842
lradius 32.2996
lwrist -7.66234
lhand -17.3874 26.2823
lfingers 7.12502
lthumb 8.86148 56.0762
rfemur -27.7544 -1.86623 18.0463
rtibia 21.7553
rfoot -3.97024 -4.52271
rtoes -7.31987
lfemur 7.26911 -0.967516 -30.6369
ltibia 20.8657
lfoot -15.1528 -5.54614
ltoes -4.22249
141
root -8.8277 17.2719 -14.3412 0.69574 -2.16817 6.12478
lowerback 6.33179 -0.973897 -7.16533
upperback 0.192065 -1.76499 1.55507
thorax -3.0921 -0.764713 5.81277
lowerneck -17.2108 -3.11249 -9.05304
upperneck 21.5801 -3.08033 5.11584
head 9.93092 -1.58844 2.88939
rclavicle 1.86858e-014 -1.19271e-014
rhumerus -36.4439 -21.2099 -72.757
rradius 24.7172
rwrist 14.5873
rhand -11.737 10.1945
rfingers 7.12502
rthumb 14.3105 -19.2923
lclavicle 1.86858e-014 -1.19271e-014
lhumerus -23.0442 4.20252 84.6135
lradius 32.2159
lwrist -7.23441
lhand -16.7244 27.1216
lfingers 7.12502
lthumb 9.5013 56.8874
rfemur -27.6007 -1.70037 17.9451
rtibia 22.5518
rfoot -3.47562 -3.84684
rtoes -2.65968
lfemur 7.6752 -1.3663 -30.6593
ltibia 21.0533
lfoot -14.4653 -5.85249
ltoes -4.83249
